<svg width="21.210938" height="21.210876" viewBox="0 0 21.2109 21.2109" fill="none" xmlns="http://www.w3.org/2000/svg" xmlns:xlink="http://www.w3.org/1999/xlink">
	<desc>
			Created with Pixso.
	</desc>
	<defs/>
	<path id="Path 9" d="M10.6055 1.88544C13.4336 1.88544 13.7871 1.88544 14.8477 2.00323C15.9082 2.00323 16.4973 2.23895 16.8508 2.35675C17.3223 2.59247 17.6758 2.82812 18.0293 3.18164C18.3828 3.53516 18.6184 3.88867 18.854 4.35999C18.9719 4.7135 19.2075 5.30273 19.2075 6.36328C19.2075 7.42383 19.3254 7.77734 19.3254 10.6055C19.3254 13.4335 19.3254 13.787 19.2075 14.8476C19.2075 15.9081 18.9719 16.4974 18.854 16.8509C18.6184 17.3222 18.3828 17.6757 18.0293 18.0292C17.6758 18.3828 17.3223 18.6185 16.8508 18.8541C16.4973 18.972 15.9082 19.2076 14.8477 19.2076C13.7871 19.2076 13.4336 19.3255 10.6055 19.3255C7.77734 19.3255 7.42383 19.3255 6.36328 19.2076C5.30273 19.2076 4.71362 18.9719 4.36011 18.8541C3.88867 18.6185 3.53516 18.3828 3.18164 18.0292C2.82812 17.6757 2.59253 17.3222 2.35669 16.8509C2.23901 16.4974 2.00317 15.9081 2.00317 14.8476C2.00317 13.787 1.8855 13.4335 1.8855 10.6055C1.8855 7.77734 1.8855 7.42383 2.00317 6.36328C2.00317 5.30273 2.23901 4.7135 2.35669 4.35999C2.59253 3.88867 2.82812 3.53516 3.18164 3.18164C3.53516 2.71027 3.88867 2.47461 4.36011 2.35675C4.71362 2.23895 5.30273 2.00323 6.36328 2.00323C7.42383 1.88544 7.77734 1.88544 10.6055 1.88544ZM10.6055 0C7.77734 0 7.30591 0 6.24536 0.117859C5.06714 0.117859 4.36011 0.353516 3.65308 0.589172C2.94604 0.82489 2.35669 1.17841 1.76758 1.76758C1.17847 2.35675 0.824951 2.94598 0.589111 3.65302C0.235596 4.35999 0.11792 5.06702 0.11792 6.24542C0 7.30597 0 7.77734 0 10.6055C0 13.4335 0 13.9049 0.11792 14.9655C0.11792 16.1439 0.353516 16.8509 0.589111 17.5579C0.824951 18.265 1.17847 18.8541 1.76758 19.4433C2.35669 20.0325 2.94604 20.386 3.65308 20.6217C4.36011 20.8574 5.06714 21.093 6.24536 21.093C7.30591 21.2109 7.77734 21.2109 10.6055 21.2109C13.4336 21.2109 13.905 21.2109 14.9653 21.093C16.1438 21.093 16.8508 20.8574 17.5579 20.6217C18.2649 20.386 18.854 20.0325 19.4434 19.4433C20.0325 18.8541 20.386 18.265 20.6216 17.5579C20.8574 16.8509 21.093 16.1439 21.093 14.9655C21.093 13.787 21.2109 13.4335 21.2109 10.6055C21.2109 7.77734 21.2109 7.30597 21.093 6.24542C21.093 5.06702 20.8574 4.35999 20.6216 3.65302C20.386 2.94598 20.0325 2.35675 19.4434 1.76758C18.854 1.17841 18.2649 0.82489 17.5579 0.589172C16.8508 0.353516 16.1438 0.117859 14.9653 0.117859C13.905 0 13.4336 0 10.6055 0ZM10.6055 5.18488C7.54175 5.18488 5.18481 7.54163 5.18481 10.6055C5.18481 13.6693 7.65942 16.026 10.6055 16.026C13.6692 16.026 16.0261 13.5514 16.0261 10.6055C16.0261 7.65948 13.6692 5.18488 10.6055 5.18488ZM10.6055 14.1406C8.60229 14.1406 7.07031 12.6087 7.07031 10.6055C7.07031 8.60217 8.60229 7.07031 10.6055 7.07031C12.6086 7.07031 14.1406 8.60217 14.1406 10.6055C14.1406 12.6087 12.6086 14.1406 10.6055 14.1406ZM16.2617 3.65302C15.5547 3.65302 14.9653 4.24219 14.9653 4.94922C14.9653 5.65625 15.5547 6.24542 16.2617 6.24542C16.9688 6.24542 17.5579 5.65625 17.5579 4.94922C17.5579 4.24219 16.9688 3.65302 16.2617 3.65302Z" fill-rule="evenodd" fill="#4EC7B2"/>
</svg>
