<svg width="145.014404" height="81.739258" viewBox="0 0 145.014 81.7393" fill="none" xmlns="http://www.w3.org/2000/svg" xmlns:xlink="http://www.w3.org/1999/xlink">
	<desc>
			Created with Pixso.
	</desc>
	<defs/>
	<path id="Path 2331" d="M51.4353 61.3757L65.854 61.3757L65.854 7.62939e-05L51.4353 7.62939e-05L51.4353 61.3757Z" fill-rule="nonzero" fill="#4EC7B2"/>
	<path id="Path 2332" d="M74.6968 20.3636L89.116 20.3636L89.116 61.3753L74.6968 61.3753L74.6968 20.3636Z" fill-rule="nonzero" fill="#4EC7B2"/>
	<mask id="mask1_4539" mask-type="alpha" maskUnits="userSpaceOnUse" x="0.000000" y="0.000076" width="145.014404" height="81.739182">
		<path id="Path 2334" d="M0 81.7393L145.014 81.7393L145.014 7.62939e-05L0 7.62939e-05L0 81.7393Z" fill-rule="nonzero" fill="#C4C4C4"/>
	</mask>
	<g mask="url(#mask1_4539)">
		<path id="Path 2333" d="M97.959 81.7393L97.959 20.3636L118.659 20.3636C131.691 20.3636 145.014 22.796 145.014 40.8289C145.014 54.7905 136.639 61.2935 118.659 61.2935L112.378 61.2935L112.378 81.7393L97.959 81.7393ZM112.378 50.8592L119.265 50.8592C127.064 50.8592 130.855 47.7203 130.855 41.2615C130.855 34.8031 127.064 31.6641 119.265 31.6641L112.378 31.6641L112.378 50.8592Z" fill-rule="nonzero" fill="#4EC7B2"/>
	</g>
	<path id="Path 2335" d="M0 0L0 61.3756L14.4192 61.3756L14.4192 50.5444L40.0371 20.364L22.989 20.3275L6.68384 39.523L6.93091 39.0423L14.3472 24.6193L14.3472 0L0 0Z" fill-rule="nonzero" fill="#4EC7B2"/>
	<path id="Path 2336" d="M30.9238 37.8941L22.251 48.0767L29.0874 61.3759L43.5513 61.3759L30.9238 37.8941Z" fill-rule="nonzero" fill="#4EC7B2"/>
</svg>
