<svg width="351.000000" height="97.283997" viewBox="0 0 351 97.284" fill="none" xmlns="http://www.w3.org/2000/svg" xmlns:xlink="http://www.w3.org/1999/xlink">
	<desc>
			Created with Pixso.
	</desc>
	<defs/>
	<rect id="Rectangle 314" x="61.217041" width="17.160999" height="73.047997" fill="#44B49F"/>
	<rect id="Rectangle 315" x="88.903015" y="24.235992" width="17.162003" height="48.811001" fill="#44B49F"/>
	<mask id="mask1_4440" mask-type="alpha" maskUnits="userSpaceOnUse" x="0.000000" y="0.000000" width="351.000000" height="97.283997">
		<rect id="Rectangle 324" width="351.000000" height="97.283997" fill="#C4C4C4"/>
	</mask>
	<g mask="url(#mask1_4440)">
		<path id="Path 6514" d="M133.75 60.531L141.946 60.531C151.228 60.531 155.741 56.796 155.741 49.109C155.741 41.422 151.228 37.686 141.946 37.686L133.75 37.686L133.75 60.531ZM116.588 97.284L116.588 24.236L141.224 24.236C156.735 24.236 172.592 27.131 172.592 48.594C172.592 65.21 162.624 72.95 141.224 72.95L133.75 72.95L133.75 97.284L116.588 97.284Z" fill-rule="nonzero" fill="#44B49F"/>
	</g>
	<g mask="url(#mask1_4440)">
		<path id="Path 6515" d="M0 0.000289917L0 73.0483L17.162 73.0483L17.162 60.1563L47.651 24.2363L27.361 24.1933L7.95496 47.0393L8.24902 46.4673L17.077 29.3003L17.077 0.000289917L0 0.000289917Z" fill-rule="nonzero" fill="#44B49F"/>
	</g>
	<g mask="url(#mask1_4440)">
		<path id="Path 6516" d="M36.8049 45.1007L26.4829 57.2197L34.6189 73.0477L51.8339 73.0477L36.8049 45.1007Z" fill-rule="nonzero" fill="#44B49F"/>
	</g>
	<g mask="url(#mask1_4440)">
		<path id="Path 6517" d="M201.419 38.7681L194.672 38.7681L194.672 33.2681L193.426 33.2681L193.426 45.4731L194.672 45.4731L194.672 39.9641L201.419 39.9641L201.419 45.4731L202.657 45.4731L202.657 33.2681L201.419 33.2681L201.419 38.7681Z" fill-rule="nonzero" fill="#FFFFFF"/>
	</g>
	<g mask="url(#mask1_4440)">
		<rect id="Rectangle 316" x="206.030029" y="33.182999" width="1.246002" height="1.398998" fill="#FFFFFF"/>
	</g>
	<g mask="url(#mask1_4440)">
		<rect id="Rectangle 317" x="206.030029" y="36.319000" width="1.246002" height="9.153999" fill="#FFFFFF"/>
	</g>
	<g mask="url(#mask1_4440)">
		<path id="Path 6518" d="M215.938 44.092C215.515 44.408 214.977 44.566 214.327 44.566C213.689 44.566 213.158 44.405 212.734 44.083C212.31 43.761 211.993 43.322 211.78 42.765C211.568 42.209 211.462 41.583 211.462 40.887C211.462 40.198 211.565 39.576 211.772 39.023C211.979 38.47 212.296 38.032 212.726 37.71C213.155 37.388 213.697 37.226 214.353 37.226C214.992 37.226 215.521 37.381 215.942 37.693C216.363 38.003 216.678 38.434 216.888 38.985C217.096 39.536 217.201 40.17 217.201 40.887C217.201 41.594 217.096 42.226 216.888 42.782C216.678 43.339 216.362 43.775 215.938 44.092ZM216.222 49.474C216.767 49.259 217.207 48.931 217.545 48.491C217.881 48.05 218.102 47.487 218.209 46.804C218.249 46.572 218.276 46.336 218.29 46.096C218.304 45.856 218.311 45.606 218.311 45.346L218.311 36.319L217.201 36.319L217.201 37.594C216.954 37.243 216.665 36.938 216.32 36.692C215.731 36.274 215.008 36.065 214.149 36.065C213.313 36.065 212.596 36.277 211.997 36.701C211.398 37.124 210.938 37.701 210.62 38.43C210.3 39.159 210.141 39.978 210.141 40.887C210.141 41.803 210.302 42.625 210.624 43.354C210.946 44.083 211.409 44.66 212.014 45.088C212.618 45.514 213.347 45.727 214.201 45.727C215.042 45.727 215.754 45.514 216.336 45.088C216.608 44.888 216.847 44.652 217.057 44.386L217.057 45.329C217.063 46.046 216.972 46.645 216.786 47.126C216.599 47.606 216.301 47.969 215.891 48.215C215.481 48.461 214.947 48.584 214.285 48.584C213.805 48.584 213.334 48.472 212.874 48.249C212.413 48.026 212.056 47.66 211.801 47.151L210.674 47.779C210.934 48.253 211.256 48.639 211.64 48.935C212.025 49.232 212.445 49.449 212.9 49.588C213.354 49.726 213.816 49.796 214.285 49.796C215.032 49.796 215.677 49.689 216.222 49.474Z" fill-rule="nonzero" fill="#FFFFFF"/>
	</g>
	<g mask="url(#mask1_4440)">
		<path id="Path 6519" d="M225.473 37.277C225.953 37.277 226.361 37.364 226.698 37.54C227.034 37.715 227.308 37.962 227.52 38.281C227.732 38.601 227.885 38.973 227.982 39.4C228.077 39.826 228.126 40.294 228.126 40.802L228.126 45.473L229.38 45.473L229.38 40.438C229.38 40.026 229.341 39.612 229.261 39.196C229.182 38.781 229.055 38.389 228.88 38.019C228.705 37.648 228.474 37.319 228.189 37.031C227.903 36.743 227.557 36.514 227.147 36.345C226.737 36.175 226.258 36.09 225.71 36.09C224.964 36.09 224.303 36.254 223.727 36.582C223.291 36.829 222.927 37.166 222.634 37.591L222.634 33.268L221.507 33.268L221.507 45.473L222.76 45.473L222.76 40.591C222.76 40.071 222.819 39.607 222.939 39.201C223.057 38.794 223.231 38.448 223.459 38.163C223.689 37.877 223.971 37.658 224.307 37.506C224.643 37.353 225.032 37.277 225.473 37.277Z" fill-rule="nonzero" fill="#FFFFFF"/>
	</g>
	<g mask="url(#mask1_4440)">
		<rect id="Rectangle 318" x="232.244995" y="39.598999" width="5.085999" height="1.068001" fill="#FFFFFF"/>
	</g>
	<g mask="url(#mask1_4440)">
		<path id="Path 6520" d="M241.61 39.65L241.61 34.463L245.043 34.463C245.145 34.463 245.264 34.467 245.399 34.476C245.535 34.484 245.667 34.503 245.798 34.53C246.216 34.621 246.559 34.793 246.828 35.047C247.096 35.302 247.297 35.605 247.43 35.959C247.562 36.312 247.628 36.678 247.628 37.056C247.628 37.435 247.562 37.8 247.43 38.15C247.297 38.501 247.096 38.802 246.828 39.057C246.559 39.311 246.216 39.483 245.798 39.574C245.667 39.602 245.535 39.621 245.399 39.633C245.264 39.644 245.145 39.65 245.043 39.65L241.61 39.65ZM248.179 39.455C248.665 38.777 248.908 37.978 248.908 37.056C248.908 36.418 248.794 35.836 248.565 35.31C248.336 34.785 248 34.348 247.556 34.001C247.113 33.653 246.572 33.432 245.933 33.336C245.781 33.307 245.63 33.289 245.479 33.28C245.33 33.272 245.196 33.267 245.077 33.267L240.364 33.267L240.364 45.473L241.61 45.473L241.61 40.837L245.508 40.837L247.755 45.473L249.188 45.473L246.78 40.534C247.356 40.307 247.825 39.95 248.179 39.455Z" fill-rule="nonzero" fill="#FFFFFF"/>
	</g>
	<g mask="url(#mask1_4440)">
		<rect id="Rectangle 319" x="252.052979" y="33.182999" width="1.246002" height="1.398998" fill="#FFFFFF"/>
	</g>
	<g mask="url(#mask1_4440)">
		<rect id="Rectangle 320" x="252.052979" y="36.319000" width="1.246002" height="9.153999" fill="#FFFFFF"/>
	</g>
	<g mask="url(#mask1_4440)">
		<path id="Path 6521" d="M262.737 44.977C263.378 44.483 263.699 43.804 263.699 42.938C263.699 42.464 263.597 42.066 263.394 41.744C263.19 41.422 262.849 41.141 262.368 40.904C261.888 40.667 261.227 40.442 260.385 40.227C259.667 40.045 259.115 39.879 258.728 39.727C258.341 39.574 258.074 39.411 257.927 39.239C257.78 39.066 257.707 38.859 257.707 38.616C257.707 38.181 257.91 37.832 258.317 37.569C258.723 37.306 259.251 37.184 259.902 37.2C260.591 37.212 261.16 37.375 261.61 37.688C262.059 38.002 262.326 38.427 262.411 38.963L263.682 38.735C263.62 38.203 263.422 37.737 263.088 37.336C262.755 36.935 262.316 36.623 261.771 36.399C261.226 36.176 260.608 36.064 259.918 36.064C259.229 36.064 258.625 36.173 258.105 36.391C257.584 36.609 257.178 36.914 256.884 37.306C256.59 37.699 256.443 38.155 256.443 38.676C256.443 39.105 256.542 39.468 256.741 39.764C256.938 40.062 257.271 40.322 257.74 40.549C258.209 40.774 258.86 41.001 259.689 41.226C260.464 41.436 261.046 41.616 261.436 41.769C261.826 41.922 262.084 42.087 262.211 42.264C262.339 42.442 262.402 42.673 262.402 42.956C262.402 43.459 262.201 43.855 261.8 44.146C261.4 44.437 260.851 44.583 260.156 44.583C259.444 44.583 258.847 44.43 258.364 44.121C257.881 43.813 257.57 43.399 257.435 42.879L256.164 43.091C256.322 43.916 256.747 44.56 257.439 45.024C258.132 45.487 259.014 45.719 260.088 45.719C261.213 45.719 262.095 45.472 262.737 44.977Z" fill-rule="nonzero" fill="#FFFFFF"/>
	</g>
	<g mask="url(#mask1_4440)">
		<path id="Path 6522" d="M273.963 45.473L269.115 40.896L273.404 36.319L271.743 36.319L267.657 40.726L267.657 33.268L266.402 33.268L266.395 45.473L267.657 45.473L267.657 41.065L272.15 45.473L273.963 45.473Z" fill-rule="nonzero" fill="#FFFFFF"/>
	</g>
	<g mask="url(#mask1_4440)">
		<path id="Path 6523" d="M200.491 57.229C200.358 57.58 200.157 57.882 199.889 58.136C199.621 58.391 199.277 58.562 198.86 58.653C198.729 58.681 198.597 58.701 198.46 58.713C198.325 58.723 198.207 58.73 198.105 58.73L194.672 58.73L194.672 53.542L198.105 53.542C198.207 53.542 198.325 53.546 198.46 53.554C198.597 53.563 198.729 53.581 198.86 53.61C199.277 53.7 199.621 53.872 199.889 54.127C200.157 54.381 200.358 54.685 200.491 55.038C200.623 55.391 200.69 55.757 200.69 56.136C200.69 56.514 200.623 56.879 200.491 57.229ZM200.618 53.08C200.175 52.732 199.634 52.511 198.995 52.414C198.843 52.387 198.691 52.368 198.541 52.36C198.392 52.351 198.258 52.347 198.138 52.347L193.426 52.347L193.426 64.552L194.672 64.552L194.672 59.916L198.138 59.916C198.258 59.916 198.392 59.911 198.541 59.899C198.691 59.888 198.843 59.871 198.995 59.848C199.627 59.752 200.166 59.531 200.61 59.183C201.053 58.835 201.391 58.399 201.623 57.873C201.854 57.348 201.97 56.768 201.97 56.136C201.97 55.497 201.856 54.916 201.627 54.39C201.397 53.864 201.061 53.428 200.618 53.08Z" fill-rule="nonzero" fill="#FFFFFF"/>
	</g>
	<g mask="url(#mask1_4440)">
		<path id="Path 6524" d="M209.954 61.323C209.875 61.78 209.703 62.191 209.437 62.556C209.171 62.92 208.821 63.207 208.386 63.416C207.951 63.625 207.443 63.729 206.86 63.729C206.368 63.729 205.974 63.648 205.678 63.484C205.382 63.32 205.167 63.113 205.034 62.865C204.901 62.616 204.834 62.36 204.834 62.093C204.834 61.766 204.913 61.492 205.067 61.271C205.223 61.051 205.423 60.875 205.665 60.742C205.908 60.609 206.16 60.506 206.42 60.433C206.804 60.331 207.235 60.243 207.712 60.17C208.19 60.097 208.675 60.031 209.17 59.974C209.487 59.939 209.783 59.903 210.071 59.866C210.069 60.004 210.067 60.163 210.064 60.352C210.059 60.705 210.022 61.029 209.954 61.323ZM211.039 56.974C210.796 56.38 210.382 55.927 209.797 55.614C209.212 55.3 208.501 55.144 207.666 55.144C206.654 55.144 205.832 55.369 205.199 55.821C204.566 56.274 204.145 56.91 203.936 57.729L205.148 58.085C205.324 57.474 205.628 57.028 206.059 56.745C206.492 56.463 207.021 56.321 207.649 56.321C208.558 56.321 209.197 56.539 209.564 56.974C209.901 57.374 210.068 57.981 210.082 58.776C209.784 58.818 209.467 58.859 209.111 58.902C208.571 58.967 208.02 59.044 207.458 59.132C206.895 59.219 206.383 59.32 205.92 59.432C205.462 59.551 205.06 59.723 204.712 59.95C204.364 60.175 204.09 60.465 203.89 60.818C203.689 61.171 203.589 61.596 203.589 62.093C203.589 62.58 203.704 63.028 203.936 63.442C204.168 63.854 204.517 64.185 204.984 64.433C205.449 64.682 206.027 64.806 206.716 64.806C207.632 64.806 208.418 64.6 209.072 64.187C209.536 63.895 209.909 63.506 210.2 63.028L210.2 64.552L211.311 64.552L211.311 58.864C211.311 58.525 211.293 58.192 211.259 57.864C211.226 57.537 211.152 57.24 211.039 56.974Z" fill-rule="nonzero" fill="#FFFFFF"/>
	</g>
	<g mask="url(#mask1_4440)">
		<path id="Path 6525" d="M217.258 62.922L214.251 55.398L212.929 55.398L216.649 64.53L215.141 68.62L216.387 68.62L221.304 55.398L220.031 55.398L217.258 62.922Z" fill-rule="nonzero" fill="#FFFFFF"/>
	</g>
	<g mask="url(#mask1_4440)">
		<path id="Path 6526" d="M232.737 55.152C232.127 55.152 231.58 55.288 231.097 55.563C230.616 55.835 230.241 56.216 229.966 56.704C229.707 56.229 229.306 55.774 228.851 55.525C228.396 55.276 227.877 55.152 227.296 55.152C226.686 55.152 226.14 55.286 225.66 55.556C225.275 55.77 224.974 56.066 224.719 56.408L224.719 55.398L223.601 55.398L223.601 64.551L224.854 64.551L224.854 58.644C224.854 57.926 225.05 57.352 225.439 56.919C225.829 56.486 226.34 56.271 226.973 56.271C227.606 56.271 228.117 56.481 228.503 56.902C228.891 57.323 229.084 57.898 229.084 58.627L229.075 64.551L230.305 64.551L230.313 58.644C230.313 58.078 230.419 57.621 230.631 57.271C230.842 56.92 231.113 56.667 231.44 56.508C231.768 56.35 232.105 56.271 232.449 56.271C233.054 56.271 233.552 56.472 233.945 56.876C234.338 57.281 234.534 57.836 234.534 58.542L234.525 64.551L235.772 64.551L235.78 58.306C235.78 57.339 235.503 56.571 234.949 56.003C234.396 55.435 233.658 55.152 232.737 55.152Z" fill-rule="nonzero" fill="#FFFFFF"/>
	</g>
	<g mask="url(#mask1_4440)">
		<path id="Path 6527" d="M240.352 57.245C240.875 56.607 241.628 56.288 242.611 56.288C243.549 56.288 244.262 56.59 244.751 57.194C245.152 57.69 245.387 58.393 245.474 59.28L239.608 59.28C239.695 58.434 239.938 57.751 240.352 57.245ZM246.12 60.322L246.79 60.322C246.818 59.249 246.667 58.324 246.34 57.55C246.013 56.776 245.53 56.182 244.891 55.766C244.252 55.351 243.481 55.144 242.577 55.144C241.695 55.144 240.931 55.341 240.285 55.736C239.637 56.132 239.136 56.695 238.78 57.424C238.423 58.153 238.246 59.017 238.246 60.017C238.246 60.983 238.426 61.825 238.788 62.543C239.15 63.26 239.657 63.817 240.309 64.212C240.962 64.608 241.735 64.806 242.628 64.806C243.515 64.806 244.31 64.587 245.013 64.149C245.717 63.711 246.25 63.094 246.612 62.297L245.45 61.847C245.168 62.418 244.782 62.855 244.293 63.157C243.805 63.46 243.232 63.611 242.577 63.611C241.616 63.611 240.875 63.292 240.352 62.657C239.885 62.089 239.638 61.303 239.588 60.322L245.518 60.322L246.12 60.322Z" fill-rule="nonzero" fill="#FFFFFF"/>
	</g>
	<g mask="url(#mask1_4440)">
		<path id="Path 6528" d="M256.605 57.098C256.43 56.728 256.199 56.398 255.914 56.11C255.628 55.822 255.281 55.593 254.871 55.423C254.461 55.254 253.982 55.169 253.435 55.169C252.689 55.169 252.028 55.333 251.451 55.661C251.016 55.909 250.652 56.246 250.358 56.671L250.358 55.399L249.231 55.399L249.231 64.552L250.485 64.552L250.485 59.67C250.485 59.151 250.544 58.687 250.663 58.28C250.781 57.873 250.955 57.527 251.184 57.242C251.414 56.956 251.696 56.737 252.032 56.585C252.368 56.432 252.756 56.356 253.198 56.356C253.678 56.356 254.086 56.443 254.423 56.619C254.759 56.794 255.032 57.041 255.245 57.36C255.456 57.68 255.61 58.052 255.707 58.48C255.802 58.906 255.85 59.374 255.85 59.882L255.85 64.552L257.105 64.552L257.105 59.518C257.105 59.105 257.066 58.691 256.986 58.276C256.907 57.86 256.78 57.468 256.605 57.098Z" fill-rule="nonzero" fill="#FFFFFF"/>
	</g>
	<g mask="url(#mask1_4440)">
		<path id="Path 6529" d="M262.318 52.855L261.08 52.855L261.08 55.398L259.122 55.398L259.122 56.465L261.08 56.465L261.08 61.238C261.08 61.684 261.087 62.081 261.102 62.428C261.116 62.776 261.205 63.12 261.368 63.458C261.572 63.865 261.869 64.165 262.262 64.356C262.655 64.548 263.102 64.656 263.602 64.678C264.102 64.701 264.609 64.659 265.123 64.552L265.123 63.458C264.467 63.566 263.919 63.582 263.474 63.509C263.031 63.435 262.708 63.21 262.504 62.831C262.396 62.633 262.338 62.406 262.33 62.149C262.322 61.892 262.318 61.571 262.318 61.186L262.318 56.465L265.123 56.465L265.123 55.398L262.318 55.398L262.318 52.855Z" fill-rule="nonzero" fill="#FFFFFF"/>
	</g>
	<g mask="url(#mask1_4440)">
		<path id="Path 6530" d="M279.57 58.86C279.251 58.626 278.923 58.445 278.587 58.318C278.251 58.19 277.958 58.092 277.71 58.025L275.319 57.322C275.002 57.232 274.676 57.116 274.34 56.974C274.004 56.833 273.722 56.638 273.493 56.389C273.265 56.141 273.15 55.81 273.15 55.398C273.15 54.991 273.274 54.629 273.522 54.313C273.771 53.996 274.108 53.746 274.535 53.562C274.962 53.379 275.449 53.288 275.998 53.288C276.562 53.293 277.081 53.401 277.553 53.614C278.024 53.825 278.413 54.126 278.719 54.516C279.024 54.906 279.218 55.367 279.303 55.897L280.608 55.66C280.473 54.931 280.196 54.3 279.777 53.766C279.36 53.232 278.829 52.821 278.188 52.533C277.548 52.244 276.82 52.1 276.006 52.1C275.203 52.095 274.489 52.228 273.861 52.499C273.234 52.77 272.74 53.158 272.379 53.66C272.017 54.163 271.836 54.759 271.836 55.449C271.836 55.855 271.901 56.217 272.031 56.534C272.161 56.849 272.343 57.125 272.578 57.359C272.811 57.594 273.087 57.795 273.404 57.961C273.721 58.128 274.065 58.265 274.438 58.373L277.532 59.297C277.741 59.359 277.956 59.44 278.176 59.538C278.396 59.637 278.6 59.759 278.786 59.907C278.972 60.054 279.122 60.238 279.235 60.462C279.348 60.685 279.405 60.955 279.405 61.271C279.405 61.752 279.27 62.167 278.998 62.517C278.726 62.867 278.354 63.138 277.879 63.327C277.405 63.516 276.868 63.611 276.269 63.611C275.359 63.611 274.576 63.386 273.921 62.937C273.265 62.487 272.836 61.868 272.632 61.077L271.361 61.288C271.496 62.012 271.786 62.636 272.23 63.161C272.673 63.687 273.236 64.092 273.917 64.378C274.598 64.663 275.364 64.806 276.218 64.806C276.856 64.806 277.446 64.725 277.986 64.564C278.525 64.403 278.997 64.17 279.4 63.865C279.804 63.56 280.119 63.184 280.342 62.737C280.564 62.292 280.676 61.785 280.676 61.221C280.676 60.639 280.572 60.158 280.362 59.78C280.153 59.401 279.889 59.094 279.57 58.86Z" fill-rule="nonzero" fill="#FFFFFF"/>
	</g>
	<g mask="url(#mask1_4440)">
		<path id="Path 6531" d="M289.355 62.598C288.858 63.273 288.101 63.612 287.084 63.612C286.095 63.612 285.347 63.279 284.838 62.615C284.329 61.951 284.075 61.069 284.075 59.966C284.075 59.254 284.184 58.626 284.401 58.081C284.619 57.536 284.949 57.108 285.393 56.8C285.836 56.492 286.4 56.339 287.084 56.339C288.096 56.339 288.852 56.666 289.352 57.322C289.851 57.978 290.101 58.859 290.101 59.966C290.101 61.046 289.853 61.923 289.355 62.598ZM289.428 55.758C288.781 55.349 287.999 55.144 287.084 55.144C286.191 55.144 285.421 55.346 284.774 55.749C284.127 56.154 283.629 56.718 283.278 57.44C282.928 58.164 282.753 59.006 282.753 59.966C282.753 60.911 282.925 61.747 283.269 62.476C283.614 63.205 284.109 63.775 284.753 64.187C285.397 64.6 286.174 64.806 287.084 64.806C287.988 64.806 288.765 64.602 289.415 64.196C290.065 63.789 290.562 63.223 290.906 62.496C291.251 61.771 291.424 60.927 291.424 59.966C291.424 59.022 291.253 58.188 290.91 57.462C290.569 56.736 290.074 56.168 289.428 55.758Z" fill-rule="nonzero" fill="#FFFFFF"/>
	</g>
	<g mask="url(#mask1_4440)">
		<rect id="Rectangle 321" x="294.286987" y="52.091995" width="1.246002" height="12.459999" fill="#FFFFFF"/>
	</g>
	<g mask="url(#mask1_4440)">
		<path id="Path 6532" d="M305.357 60.281C305.357 60.795 305.298 61.257 305.179 61.666C305.061 62.076 304.887 62.424 304.658 62.709C304.428 62.995 304.146 63.213 303.81 63.366C303.474 63.519 303.085 63.595 302.644 63.595C302.164 63.595 301.756 63.507 301.419 63.332C301.083 63.157 300.81 62.91 300.598 62.59C300.386 62.271 300.232 61.897 300.136 61.467C300.04 61.038 299.992 60.572 299.992 60.068L299.992 55.399L298.737 55.399L298.737 60.433C298.737 60.846 298.776 61.26 298.856 61.674C298.935 62.09 299.062 62.483 299.237 62.853C299.412 63.223 299.643 63.552 299.928 63.841C300.214 64.128 300.561 64.357 300.971 64.527C301.381 64.696 301.86 64.781 302.407 64.781C303.153 64.781 303.814 64.617 304.391 64.289C304.827 64.042 305.191 63.704 305.485 63.278L305.485 64.552L306.603 64.552L306.603 55.399L305.357 55.399L305.357 60.281Z" fill-rule="nonzero" fill="#FFFFFF"/>
	</g>
	<g mask="url(#mask1_4440)">
		<path id="Path 6533" d="M311.986 52.855L310.748 52.855L310.748 55.398L308.79 55.398L308.79 56.465L310.748 56.465L310.748 61.238C310.748 61.684 310.755 62.081 310.77 62.428C310.784 62.776 310.873 63.12 311.036 63.458C311.24 63.865 311.537 64.165 311.93 64.356C312.323 64.548 312.77 64.656 313.27 64.678C313.77 64.701 314.277 64.659 314.791 64.552L314.791 63.458C314.135 63.566 313.587 63.582 313.142 63.509C312.699 63.435 312.376 63.21 312.172 62.831C312.064 62.633 312.006 62.406 311.998 62.149C311.99 61.892 311.986 61.571 311.986 61.186L311.986 56.465L314.791 56.465L314.791 55.398L311.986 55.398L311.986 52.855Z" fill-rule="nonzero" fill="#FFFFFF"/>
	</g>
	<g mask="url(#mask1_4440)">
		<rect id="Rectangle 322" x="317.596008" y="55.397995" width="1.246002" height="9.153999" fill="#FFFFFF"/>
	</g>
	<g mask="url(#mask1_4440)">
		<rect id="Rectangle 323" x="317.596008" y="52.261002" width="1.246002" height="1.398998" fill="#FFFFFF"/>
	</g>
	<g mask="url(#mask1_4440)">
		<path id="Path 6534" d="M328.309 62.598C327.812 63.273 327.055 63.612 326.038 63.612C325.049 63.612 324.301 63.279 323.792 62.615C323.283 61.951 323.028 61.069 323.028 59.966C323.028 59.254 323.138 58.626 323.355 58.081C323.573 57.536 323.903 57.108 324.347 56.8C324.79 56.492 325.354 56.339 326.038 56.339C327.05 56.339 327.806 56.666 328.306 57.322C328.805 57.978 329.055 58.859 329.055 59.966C329.055 61.046 328.807 61.923 328.309 62.598ZM328.382 55.758C327.735 55.349 326.953 55.144 326.038 55.144C325.145 55.144 324.375 55.346 323.728 55.749C323.081 56.154 322.583 56.718 322.232 57.44C321.882 58.164 321.707 59.006 321.707 59.966C321.707 60.911 321.879 61.747 322.223 62.476C322.568 63.205 323.063 63.775 323.707 64.187C324.351 64.6 325.128 64.806 326.038 64.806C326.942 64.806 327.719 64.602 328.369 64.196C329.019 63.789 329.516 63.223 329.86 62.496C330.205 61.771 330.378 60.927 330.378 59.966C330.378 59.022 330.207 58.188 329.864 57.462C329.523 56.736 329.028 56.168 328.382 55.758Z" fill-rule="nonzero" fill="#FFFFFF"/>
	</g>
	<g mask="url(#mask1_4440)">
		<path id="Path 6535" d="M340.439 57.098C340.264 56.728 340.033 56.398 339.748 56.11C339.462 55.822 339.115 55.593 338.705 55.423C338.295 55.254 337.817 55.169 337.269 55.169C336.523 55.169 335.862 55.333 335.285 55.661C334.85 55.909 334.486 56.246 334.192 56.671L334.192 55.399L333.065 55.399L333.065 64.552L334.319 64.552L334.319 59.67C334.319 59.151 334.378 58.687 334.497 58.28C334.615 57.873 334.789 57.527 335.018 57.242C335.248 56.956 335.53 56.737 335.866 56.585C336.202 56.432 336.591 56.356 337.032 56.356C337.512 56.356 337.92 56.443 338.257 56.619C338.593 56.794 338.866 57.041 339.079 57.36C339.29 57.68 339.444 58.052 339.541 58.48C339.636 58.906 339.684 59.374 339.684 59.882L339.684 64.552L340.939 64.552L340.939 59.518C340.939 59.105 340.9 58.691 340.82 58.276C340.741 57.86 340.614 57.468 340.439 57.098Z" fill-rule="nonzero" fill="#FFFFFF"/>
	</g>
	<g mask="url(#mask1_4440)">
		<path id="Path 6536" d="M350.695 60.823C350.491 60.501 350.15 60.221 349.669 59.984C349.189 59.746 348.528 59.521 347.686 59.306C346.968 59.125 346.416 58.958 346.029 58.806C345.642 58.654 345.375 58.49 345.228 58.319C345.081 58.146 345.008 57.939 345.008 57.695C345.008 57.26 345.211 56.911 345.617 56.648C346.024 56.385 346.552 56.263 347.203 56.28C347.892 56.291 348.461 56.454 348.911 56.767C349.36 57.081 349.627 57.506 349.712 58.043L350.983 57.814C350.92 57.283 350.723 56.817 350.389 56.415C350.056 56.014 349.617 55.703 349.072 55.479C348.527 55.256 347.909 55.144 347.219 55.144C346.53 55.144 345.925 55.253 345.406 55.471C344.885 55.687 344.479 55.993 344.185 56.385C343.891 56.778 343.744 57.234 343.744 57.755C343.744 58.184 343.843 58.547 344.042 58.844C344.239 59.141 344.572 59.402 345.041 59.628C345.51 59.854 346.161 60.08 346.99 60.306C347.764 60.515 348.347 60.695 348.737 60.849C349.127 61.001 349.385 61.166 349.512 61.344C349.64 61.522 349.703 61.753 349.703 62.035C349.703 62.538 349.502 62.935 349.101 63.225C348.7 63.516 348.152 63.662 347.457 63.662C346.745 63.662 346.148 63.509 345.665 63.201C345.182 62.893 344.871 62.478 344.736 61.959L343.465 62.17C343.623 62.996 344.048 63.64 344.74 64.104C345.433 64.566 346.315 64.798 347.389 64.798C348.514 64.798 349.396 64.551 350.038 64.056C350.679 63.563 351 62.883 351 62.018C351 61.543 350.898 61.145 350.695 60.823Z" fill-rule="nonzero" fill="#FFFFFF"/>
	</g>
</svg>
