<svg width="24.630615" height="16.933533" viewBox="0 0 24.6306 16.9335" fill="none" xmlns="http://www.w3.org/2000/svg" xmlns:xlink="http://www.w3.org/1999/xlink">
	<desc>
			Created with Pixso.
	</desc>
	<defs/>
	<path id="Path 78" d="M23.5837 1.63177C22.9158 0.443359 22.1907 0.224731 20.7144 0.141602C19.2395 0.0415649 15.5312 0 12.3184 0C9.09937 0 5.3894 0.0415649 3.91626 0.140076C2.44312 0.224731 1.71655 0.441833 1.04224 1.63177C0.354004 2.81866 0 4.86298 0 8.46216C0 12.0459 0.354004 14.118 1.04224 15.2925C1.71655 16.481 2.44141 16.6965 3.91479 16.7965C5.3894 16.8828 9.09937 16.9335 12.3184 16.9335C15.5312 16.9335 19.2395 16.8828 20.7158 16.798C22.1921 16.698 22.9172 16.4825 23.5854 15.2941C24.2795 14.1195 24.6306 12.0598 24.6306 8.47601C24.6306 4.87531 24.2795 2.81866 23.5837 1.63177ZM9.23657 13.085L9.23657 3.84851L16.9336 8.46674L9.23657 13.085Z" fill-rule="nonzero" fill="#4EC7B2"/>
</svg>
